# xmcd
#
# Track frame offsets: 
#        150
#        14085
#        26860
#        40865
#        54350
#        72965
#        83950
#        99905
#        116387
#        132840
#        144840
#        160290
#        178575
#        194630
#        210375
#        225490
#        240875
#        258660
#
# Disc length: 3629 seconds
#
# Revision: 7
# Processed by: cddbd v1.5.2PL0 Copyright (c) Steve Scherf et al.
# Submitted via: ExactAudioCopy v1.3
#
DISCID=ef0e2b12
DTITLE=Travis, Randy - Forever And Ever...The Best Of
DYEAR=1995
DGENRE=Country
TTITLE0=If I Didn't Have You
TTITLE1=Honky Tonk Moon
TTITLE2=On The Other Hand
TTITLE3=1982
TTITLE4=No Place Like Home
TTITLE5=Too Gone Too Long
TTITLE6=Forever And Ever, Amen
TTITLE7=Deeper Than The Holler
TTITLE8=Good Intentions
TTITLE9=Tonight We're Gonna Tear Down The Walls
TTITLE10=He Walked On Water
TTITLE11=Hard Rock Bottom Of Your Heart
TTITLE12=Point Of Light
TTITLE13=Wind In The Wire
TTITLE14=Before You Kill Us All
TTITLE15=This Is Me
TTITLE16=It's Just A Matter Of Time
TTITLE17=Diggin' Up Bones
EXTD=
EXTT0=
EXTT1=
EXTT2=PRODUCED BY KYLE LEHNING and KEITH STEGALL
EXTT3=
EXTT4=
EXTT5=
EXTT6=
EXTT7=
EXTT8=
EXTT9=
EXTT10=
EXTT11=
EXTT12=
EXTT13=PRODUCED BY STEVE GIBSON
EXTT14=
EXTT15=
EXTT16=PRODUCED BY RICHARD PERRY
EXTT17=
PLAYORDER=
